<svg width="13" height="13" viewBox="0 0 13 13" fill="none" xmlns="http://www.w3.org/2000/svg">
<path d="M5.79078 0.939209C6.04024 0.171451 7.12642 0.17145 7.37588 0.939209L8.26719 3.68237C8.37875 4.02572 8.69871 4.25819 9.05973 4.25819H11.9441C12.7513 4.25819 13.087 5.2912 12.4339 5.76571L10.1004 7.46107C9.80834 7.67328 9.68612 8.04942 9.79769 8.39277L10.689 11.1359C10.9385 11.9037 10.0597 12.5421 9.40663 12.0676L7.07315 10.3723C6.78108 10.1601 6.38558 10.1601 6.09351 10.3723L3.76004 12.0676C3.10694 12.5421 2.22821 11.9037 2.47767 11.1359L3.36898 8.39277C3.48054 8.04942 3.35832 7.67328 3.06625 7.46107L0.732776 5.76571C0.0796814 5.2912 0.415328 4.25819 1.2226 4.25819H4.10693C4.46795 4.25819 4.78791 4.02573 4.89948 3.68237L5.79078 0.939209Z" fill="#FCB547"/>
</svg>
